####
#
#	OBJ File Generated by LightWave3D
#	LightWave3D OBJ Export v2.3
#
####
o GlassWall_Door_001_obj.obj
mtllib GlassWall_Door_001_obj.mtl
g default
v 570 372 -7.615
v 215 372 -7.615
v 215 22 -7.615
v 570 22 -7.615
v 570 22 7.615
v 215 22 7.615
v 215 372 7.615
v 570 372 7.615
v 570 203 22.5
v 566.752 200 24.0648
v 563.805 200 29.0497
v 546.195 200 29.0497
v 543.248 200 24.0648
v 540 203 22.5
v 564 203 32.65
v 546 203 32.65
v 564.202 200 -26.8901
v 566.599 200 -23.698
v 570 203 -22.5
v 540 203 -22.5
v 543.401 200 -23.698
v 545.798 200 -26.8901
v 546 203 -30.49
v 564 203 -30.49
v 564 224.975 -30.49
v 546 224.975 -30.49
v 564 224.975 32.65
v 546 224.975 32.65
v 570 232.5 22.5
v 570 232.5 -22.5
v 540 232.5 -22.5
v 540 232.5 22.5
v 566.752 174 24.0648
v 563.805 174 29.0497
v 546.195 174 29.0497
v 543.248 174 24.0648
v 564.202 174 -26.8901
v 566.599 174 -23.698
v 543.401 174 -23.698
v 545.798 174 -26.8901
v 546 171 -30.49
v 564 171 -30.49
v 570 171 -22.5
v 540 171 -22.5
v 570 171 22.5
v 540 171 22.5
v 564 171 32.65
v 546 171 32.65
v 546 155.625 -30.49
v 564 155.625 -30.49
v 564 155.625 32.65
v 546 155.625 32.65
v 540 147.5 -22.5
v 570 147.5 -22.5
v 570 147.5 22.5
v 540 147.5 22.5
vt 0.00165781 0.461168
vt 0.00165781 0.482392
vt 0.00165781 0.526566
vt 0.00165781 0.556902
vt 0.00171098 0.00171098
vt 0.00171098 0.446565
vt 0.00638431 0.486534
vt 0.00638431 0.522425
vt 0.0129286 0.486534
vt 0.0129286 0.522425
vt 0.0149829 0.449952
vt 0.0149829 0.482392
vt 0.0149829 0.526566
vt 0.0149829 0.567289
vt 0.0740597 0.449952
vt 0.0740597 0.482392
vt 0.0740597 0.526566
vt 0.0740597 0.567289
vt 0.0756324 0.486534
vt 0.0756324 0.522425
vt 0.0798231 0.486534
vt 0.0798231 0.522425
vt 0.0845491 0.461168
vt 0.0845491 0.482392
vt 0.0845491 0.526566
vt 0.0845491 0.556902
vt 0.0878647 0.461168
vt 0.0878647 0.482392
vt 0.0878647 0.526566
vt 0.0878647 0.556902
vt 0.0925912 0.486534
vt 0.0925912 0.522425
vt 0.0991355 0.486534
vt 0.0991355 0.522425
vt 0.10119 0.449952
vt 0.10119 0.482392
vt 0.10119 0.526566
vt 0.10119 0.567289
vt 0.160267 0.449952
vt 0.160267 0.482392
vt 0.160267 0.526566
vt 0.160267 0.567289
vt 0.161839 0.486534
vt 0.161839 0.522425
vt 0.16603 0.486534
vt 0.16603 0.522425
vt 0.170756 0.461168
vt 0.170756 0.482392
vt 0.170756 0.526566
vt 0.170756 0.556902
vt 0.446565 0.00171098
vt 0.446565 0.446565
vt 0.449987 0.00171098
vt 0.449987 0.446565
vt 0.894841 0.00171098
vt 0.894841 0.446565
vt 0.898119 0.00171098
vt 0.898119 0.446565
vt 0.929467 0.00171098
vt 0.929467 0.446565
vt 0.932602 0.105117
vt 0.932602 0.127312
vt 0.932602 0.173506
vt 0.932602 0.205228
vt 0.932651 0.00166852
vt 0.932651 0.221879
vt 0.932651 0.280956
vt 0.932651 0.306834
vt 0.932651 0.360427
vt 0.942349 0.0121674
vt 0.942349 0.0320346
vt 0.942349 0.0733842
vt 0.942349 0.10178
vt 0.942349 0.208554
vt 0.942349 0.291446
vt 0.942349 0.294745
vt 0.96395 0.105117
vt 0.96395 0.127312
vt 0.96395 0.173506
vt 0.96395 0.205228
vt 0.971444 0.0121674
vt 0.971444 0.0320346
vt 0.971444 0.0733842
vt 0.971444 0.10178
vt 0.971444 0.208554
vt 0.971444 0.291446
vt 0.971444 0.294745
vt 0.981142 0.00166852
vt 0.981142 0.221879
vt 0.981142 0.280956
vt 0.981142 0.306834
vt 0.981142 0.360427
vn 0 0 -1
vn 0 0 -1
vn 0 0 -1
vn 0 0 -1
vn 0 0 1
vn 0 0 1
vn 0 0 1
vn 0 0 1
vn 0 0.949556 0.313598
vn 0 0.929509 -0.3688
vn 0 0.929509 -0.3688
vn 0 0.949556 0.313598
vn 0 -0.922269 -0.38655
vn 0 -0.922269 -0.38655
vn 0 -0.943579 0.331149
vn 0 -0.943579 0.331149
vn 0.377599 -0.781077 0.49733
vn 0.354294 -0.321303 0.878203
vn -0.354294 -0.321303 0.878203
vn -0.377599 -0.781077 0.49733
vn 0.356984 0.333127 0.87269
vn 0.377042 0.789837 0.483732
vn -0.377042 0.789837 0.483732
vn -0.356984 0.333127 0.87269
vn -0.314049 -0.275372 -0.908594
vn 0.314049 -0.275372 -0.908594
vn 0.348706 -0.741839 -0.572783
vn -0.348706 -0.741839 -0.572783
vn -0.34802 0.752051 -0.559733
vn 0.34802 0.752051 -0.559733
vn 0.316195 0.287856 -0.903969
vn -0.316195 0.287856 -0.903969
vn 0.354294 -0.321303 0.878203
vn 0.467238 0.164337 0.868725
vn -0.467238 0.164337 0.868725
vn -0.354294 -0.321303 0.878203
vn -0.354294 -0.321303 0.878203
vn -0.660084 0.142158 0.737618
vn -0.902403 0.124795 0.412426
vn -0.803934 -0.337275 0.489833
vn 0.660084 0.142158 0.737618
vn 0.354294 -0.321303 0.878203
vn 0.803934 -0.337275 0.489833
vn 0.902403 0.124795 0.412426
vn -0.964583 0 0.263778
vn -0.902403 0.124795 0.412426
vn -0.873407 0.127586 -0.469982
vn -0.948588 0 -0.316513
vn 0.948588 0 -0.316513
vn 0.873407 0.127586 -0.469982
vn 0.902403 0.124795 0.412426
vn 0.964583 0 0.263778
vn -0.314049 -0.275372 -0.908594
vn -0.609457 0.137234 -0.780851
vn 0.609457 0.137234 -0.780851
vn 0.314049 -0.275372 -0.908594
vn -0.609457 0.137234 -0.780851
vn -0.314049 -0.275372 -0.908594
vn -0.770487 -0.30019 -0.562348
vn -0.873407 0.127586 -0.469982
vn 0.314049 -0.275372 -0.908594
vn 0.609457 0.137234 -0.780851
vn 0.873407 0.127586 -0.469982
vn 0.770487 -0.30019 -0.562348
vn -0.609456 -0.137233 -0.780852
vn 0.609456 -0.137233 -0.780852
vn 0.609457 0.137234 -0.780851
vn -0.609457 0.137234 -0.780851
vn 0.316195 0.287856 -0.903969
vn 0.609456 -0.137233 -0.780852
vn -0.609456 -0.137233 -0.780852
vn -0.316195 0.287856 -0.903969
vn -0.647139 0.199732 -0.735744
vn -0.647137 -0.199731 -0.735745
vn -0.887011 -0.199731 -0.416316
vn -0.887012 0.199733 -0.416313
vn -0.316195 0.287856 -0.903969
vn -0.609456 -0.137233 -0.780852
vn -0.873406 -0.127585 -0.469983
vn -0.772821 0.312614 -0.552286
vn 0.609456 -0.137233 -0.780852
vn 0.316195 0.287856 -0.903969
vn 0.772821 0.312614 -0.552286
vn 0.873406 -0.127585 -0.469983
vn 0.887012 0.199733 -0.416313
vn 0.887011 -0.199731 -0.416316
vn 0.647137 -0.199731 -0.735745
vn 0.647139 0.199732 -0.735744
vn 0.467238 0.164337 0.868725
vn 0.467237 -0.164337 0.868725
vn -0.467237 -0.164337 0.868725
vn -0.467238 0.164337 0.868725
vn -0.356984 0.333127 0.87269
vn -0.467237 -0.164337 0.868725
vn 0.467237 -0.164337 0.868725
vn 0.356984 0.333127 0.87269
vn -0.660084 -0.142159 0.737618
vn -0.356984 0.333127 0.87269
vn -0.806186 0.348025 0.47848
vn -0.902403 -0.124795 0.412426
vn -0.927425 0.199734 0.316211
vn -0.927425 -0.199734 0.316211
vn -0.724147 -0.199734 0.660089
vn -0.724147 0.199734 0.660089
vn 0.724147 0.199734 0.660089
vn 0.724147 -0.199734 0.660089
vn 0.927425 -0.199734 0.316211
vn 0.927425 0.199734 0.316211
vn 0.356984 0.333127 0.87269
vn 0.660084 -0.142159 0.737618
vn 0.902403 -0.124795 0.412426
vn 0.806186 0.348025 0.47848
vn -0.902403 -0.124795 0.412426
vn -0.873406 -0.127585 -0.469983
vn -0.873407 0.127586 -0.469982
vn -0.902403 0.124795 0.412426
vn -0.948588 0 -0.316513
vn -0.873406 -0.127585 -0.469983
vn -0.902403 -0.124795 0.412426
vn -0.964583 0 0.263778
vn 0.873407 0.127586 -0.469982
vn 0.873406 -0.127585 -0.469983
vn 0.902403 -0.124795 0.412426
vn 0.902403 0.124795 0.412426
vn 0.964583 0 0.263778
vn 0.902403 -0.124795 0.412426
vn 0.873406 -0.127585 -0.469983
vn 0.948588 0 -0.316513
vn -0.647139 0.199732 -0.735744
vn -0.887012 0.199733 -0.416313
vn -0.609457 0.137234 -0.780851
vn -0.873407 0.127586 -0.469982
vn -0.887012 0.199733 -0.416313
vn -0.887011 -0.199731 -0.416316
vn -0.609456 -0.137233 -0.780852
vn -0.609457 0.137234 -0.780851
vn -0.873406 -0.127585 -0.469983
vn -0.609456 -0.137233 -0.780852
vn -0.887011 -0.199731 -0.416316
vn -0.647137 -0.199731 -0.735745
vn -0.873406 -0.127585 -0.469983
vn -0.647137 -0.199731 -0.735745
vn -0.647139 0.199732 -0.735744
vn -0.873407 0.127586 -0.469982
vn 0.609457 0.137234 -0.780851
vn 0.887012 0.199733 -0.416313
vn 0.647139 0.199732 -0.735744
vn 0.873407 0.127586 -0.469982
vn 0.647139 0.199732 -0.735744
vn 0.647137 -0.199731 -0.735745
vn 0.873406 -0.127585 -0.469983
vn 0.873407 0.127586 -0.469982
vn 0.887011 -0.199731 -0.416316
vn 0.609456 -0.137233 -0.780852
vn 0.873406 -0.127585 -0.469983
vn 0.647137 -0.199731 -0.735745
vn 0.609456 -0.137233 -0.780852
vn 0.887011 -0.199731 -0.416316
vn 0.887012 0.199733 -0.416313
vn 0.609457 0.137234 -0.780851
vn -0.927425 0.199734 0.316211
vn -0.724147 0.199734 0.660089
vn -0.902403 0.124795 0.412426
vn -0.660084 0.142158 0.737618
vn -0.724147 0.199734 0.660089
vn -0.724147 -0.199734 0.660089
vn -0.902403 -0.124795 0.412426
vn -0.902403 0.124795 0.412426
vn -0.660084 -0.142159 0.737618
vn -0.902403 -0.124795 0.412426
vn -0.724147 -0.199734 0.660089
vn -0.927425 -0.199734 0.316211
vn -0.927425 -0.199734 0.31621
vn -0.927425 -0.199734 0.316211
vn -0.927425 0.199734 0.316211
vn -0.927425 0.199734 0.31621
vn 0.902403 0.124795 0.412426
vn 0.724147 0.199734 0.660089
vn 0.927425 0.199734 0.316211
vn 0.660084 0.142158 0.737618
vn 0.927425 0.199734 0.316211
vn 0.927425 -0.199734 0.316211
vn 0.927425 -0.199734 0.31621
vn 0.927425 0.199734 0.31621
vn 0.724147 -0.199734 0.660089
vn 0.902403 -0.124795 0.412426
vn 0.660084 -0.142159 0.737618
vn 0.927425 -0.199734 0.316211
vn 0.902403 -0.124795 0.412426
vn 0.724147 -0.199734 0.660089
vn 0.724147 0.199734 0.660089
vn 0.902403 0.124795 0.412426
vn 1 0 -0
vn 1 0 -0
vn 1 0 -0
vn 1 0 -0
g Door
usemtl Door
s 1
f 4/55/1 3/53/2 2/54/3 1/56/4
f 8/52/5 7/6/6 6/5/7 5/51/8
g Door_frame
usemtl Door_frame
s 1
f 29/89/9 30/90/10 31/67/11 32/66/12
f 53/69/13 54/92/14 55/91/15 56/68/16
f 55/91/17 51/87/18 52/76/19 56/68/20
f 27/85/21 29/89/22 32/66/23 28/74/24
f 49/70/25 50/81/26 54/88/27 53/65/28
f 31/67/29 30/90/30 25/86/31 26/75/32
f 51/77/33 47/78/34 48/62/35 52/61/36
f 52/1/37 48/2/38 46/12/39 56/11/40
f 47/28/41 51/27/42 55/35/43 45/36/44
f 56/11/45 46/12/46 44/16/47 53/15/48
f 54/39/49 43/40/50 45/36/51 55/35/52
f 49/70/53 41/71/54 42/82/55 50/81/56
f 41/24/57 49/23/58 53/15/59 44/16/60
f 50/47/61 42/48/62 43/40/63 54/39/64
f 23/72/65 24/83/66 42/82/67 41/71/68
f 25/84/69 24/83/70 23/72/71 26/73/72
f 39/19/73 21/20/74 22/22/75 40/21/76
f 26/26/77 23/25/78 20/17/79 31/18/80
f 24/49/81 25/50/82 30/42/83 19/41/84
f 37/45/85 17/46/86 18/44/87 38/43/88
f 47/78/89 15/79/90 16/63/91 48/62/92
f 28/64/93 16/63/94 15/79/95 27/80/96
f 16/3/97 28/4/98 32/14/99 14/13/100
f 35/7/101 12/8/102 13/10/103 36/9/104
f 33/33/105 10/34/106 11/32/107 34/31/108
f 27/30/109 15/29/110 9/37/111 29/38/112
f 14/13/113 20/17/114 44/16/115 46/12/116
f 31/18/117 20/17/118 14/13/119 32/14/120
f 43/40/121 19/41/122 9/37/123 45/36/124
f 29/38/125 9/37/126 19/41/127 30/42/128
f 39/19/129 40/21/130 41/24/131 44/16/132
f 40/21/133 22/22/134 23/25/135 41/24/136
f 20/17/137 23/25/138 22/22/139 21/20/140
f 20/17/141 21/20/142 39/19/143 44/16/144
f 42/48/145 37/45/146 38/43/147 43/40/148
f 38/43/149 18/44/150 19/41/151 43/40/152
f 17/46/153 24/49/154 19/41/155 18/44/156
f 24/49/157 17/46/158 37/45/159 42/48/160
f 35/7/161 36/9/162 46/12/163 48/2/164
f 36/9/165 13/10/166 14/13/167 46/12/168
f 16/3/169 14/13/170 13/10/171 12/8/172
f 16/3/173 12/8/174 35/7/175 48/2/176
f 45/36/177 33/33/178 34/31/179 47/28/180
f 34/31/181 11/32/182 15/29/183 47/28/184
f 10/34/185 9/37/186 15/29/187 11/32/188
f 9/37/189 10/34/190 33/33/191 45/36/192
g Door
usemtl Door
s 1
f 8/58/193 5/57/194 4/59/195 1/60/196
