####
#
#	OBJ File Generated by LightWave3D
#	LightWave3D OBJ Export v2.3
#
####
o LightSwitch_obj.obj
mtllib LightSwitch_obj.mtl
g default
v -40 -28 1.5
v -40 32 1.5
v 0 32 1.5
v 0 -28 1.5
v -40 -28 -0.5
v -40 32 -0.5
v 0 32 -0.5
v 0 -28 -0.5
v -27.0423 0 -0.5
v -13 0 -0.5
vt 0.00224629 0.00225469
vt 0.00224629 0.565927
vt 0.00224629 0.570076
vt 0.00224629 0.589015
vt 0.115702 0.681818
vt 0.161157 0.681818
vt 0.384117 0.00225469
vt 0.384117 0.565927
vt 0.384117 0.570076
vt 0.384117 0.589015
vt 0.388258 0.00225469
vt 0.388258 0.565927
vt 0.38861 0.570076
vt 0.38861 0.589015
vt 0.407197 0.00225469
vt 0.407197 0.565927
vt 0.410985 0.00225469
vt 0.410985 0.565927
vt 0.429924 0.00225469
vt 0.429924 0.565927
vt 0.434064 0.00225469
vt 0.434064 0.565927
vt 0.770481 0.570076
vt 0.770481 0.589015
vt 0.815935 0.00225469
vt 0.815935 0.565927
vn 0 0 1
vn 0 0 1
vn 0 0 1
vn 0 0 1
vn -1 0 -0
vn -1 0 -0
vn -1 0 -0
vn -1 0 -0
vn 0 1 -0
vn 0 1 -0
vn 0 1 -0
vn 0 1 -0
vn 1 0 -0
vn 1 0 -0
vn 1 0 -0
vn 1 0 -0
vn 0 -1 -0
vn 0 -1 -0
vn 0 -1 -0
vn 0 -1 -0
vn 0 0 -1
vn 0 0 -1
vn 0 0 -1
vn 0 0 -1
g LightSwitch
usemtl LightSwitch
s 1
f 4/7/1 3/8/2 2/2/3 1/1/4
f 2/12/5 6/16/6 5/15/7 1/11/8
f 3/9/9 7/10/10 6/4/11 2/3/12
f 8/19/13 7/20/14 3/18/15 4/17/16
f 5/14/17 8/24/18 4/23/19 1/13/20
f 6/22/21 7/26/22 8/25/23 5/21/24
g Default
usemtl Default
s off
p 9/6
p 9/6
p 9/6
p 9/6
p 9/6
p 9/6
p 9/6
p 9/6
p 9/6
p 9/6
p 10/5
p 10/5
p 10/5
p 10/5
p 10/5
p 10/5
p 10/5
p 10/5
p 10/5
p 10/5
