####
#
#	OBJ File Generated by LightWave3D
#	LightWave3D OBJ Export v2.3
#
####
o Wall_baseWWindow_001_obj.obj
mtllib Wall_baseWWindow_001_obj.mtl
g default
v -200.74 -0.139999 2.72559
v -200.74 398.34 2.72559
v -200.74 -0.139999 -9.22852
v -200.74 398.34 -9.22852
v 197.74 398.34 2.72559
v 197.74 -0.139999 2.72559
v 197.74 398.34 -9.22852
v 197.74 -0.139999 -9.22852
v -5.4848 -0.139999 2.72559
v -5.4848 -0.139999 -9.22852
v -5.4848 398.34 2.72559
v -5.4848 398.34 -9.22852
v 6.4696 -0.139999 -9.22852
v 6.4696 -0.139999 2.72559
v 6.4696 398.34 2.72559
v 6.4696 398.34 -9.22852
v -5.4848 -0.139999 6.71094
v -5.4848 398.34 6.71094
v 6.4696 398.34 6.71094
v 6.4696 -0.139999 6.71094
v -188.786 398.34 2.72559
v -188.786 -0.139999 2.72559
v 185.786 -0.139999 2.72559
v 185.786 398.34 2.72559
v -200.74 398.34 6.71094
v -188.786 398.34 6.71094
v -188.786 -0.139999 6.71094
v -200.74 -0.139999 6.71094
v 197.74 -0.139999 6.71094
v 185.786 -0.139999 6.71094
v 185.786 398.34 6.71094
v 197.74 398.34 6.71094
v 6.4696 390.37 2.72559
v 185.786 390.37 2.72559
v -5.4848 390.37 2.72559
v -188.786 390.37 2.72559
v 185.786 398.34 6.71094
v 185.786 390.37 6.71094
v 6.4696 390.37 6.71094
v 6.4696 398.34 6.71094
v -188.786 398.34 6.71094
v -5.4848 398.34 6.71094
v -5.4848 390.37 6.71094
v -188.786 390.37 6.71094
v 185.786 7.82961 2.72559
v 6.4696 7.82961 2.72559
v -188.786 7.82961 2.72559
v -5.4848 7.82961 2.72559
v -188.786 7.82961 2.72559
v 6.4696 -0.139999 6.71094
v 6.4696 7.82961 6.71094
v 185.786 7.82961 6.71094
v 185.786 -0.139999 6.71094
v -188.786 -0.139999 6.71094
v -188.786 7.82961 6.71094
v -5.4848 7.82961 6.71094
v -5.4848 -0.139999 6.71094
v -5.4848 7.82961 6.71094
v 6.4696 7.82961 6.71094
v 6.4696 390.37 6.71094
v -5.4848 390.37 6.71094
v -5.4848 7.82961 2.72559
v -5.4848 390.37 2.72559
v 6.4696 390.37 2.72559
v 6.4696 7.82961 2.72559
v -5.4848 7.82961 6.71094
v -5.4848 390.37 6.71094
v 6.4696 390.37 6.71094
v 6.4696 7.82961 6.71094
v -164.877 362.477 -9.22852
v -164.877 39.708 -9.22852
v -29.3936 362.477 -9.22852
v -29.3936 39.708 -9.22852
v 161.877 362.477 -9.22852
v 161.877 39.708 -9.22852
v 26.3936 362.477 -9.22852
v 26.3936 39.708 -9.22852
v 161.877 362.477 2.72559
v 161.877 39.708 2.72559
v 26.3936 362.477 2.72559
v 26.3936 39.708 2.72559
v -164.877 362.477 2.72559
v -164.877 39.708 2.72559
v -29.3936 362.477 2.72559
v -29.3936 39.708 2.72559
v -164.877 39.708 -9.22852
v -164.877 362.477 -9.22852
v -164.877 362.477 2.72559
v -164.877 39.708 2.72559
v -29.3936 362.477 -9.22852
v -29.3936 362.477 2.72559
v -29.3936 39.708 -9.22852
v -29.3936 39.708 2.72559
v 161.877 362.477 -9.22852
v 161.877 39.708 -9.22852
v 161.877 39.708 2.72559
v 161.877 362.477 2.72559
v 26.3936 362.477 -9.22852
v 26.3936 362.477 2.72559
v 26.3936 39.708 -9.22852
v 26.3936 39.708 2.72559
v -168.862 26.2536 2.74121
v -168.862 26.2536 -1.24365
v -168.862 368.946 -1.24365
v -168.862 368.946 2.74121
v -21.424 26.2536 2.74121
v -21.424 26.2536 -1.24365
v -21.424 368.946 -1.24365
v -21.424 368.946 2.74121
v 165.862 26.2536 2.74121
v 165.862 26.2536 -1.24365
v 165.862 368.946 -1.24365
v 165.862 368.946 2.74121
v 18.424 26.2536 2.74121
v 18.424 26.2536 -1.24365
v 18.424 368.946 -1.24365
v 18.424 368.946 2.74121
vt 0.00045073 0.00047981
vt 0.00045073 0.480289
vt 0.000479817 0.481249
vt 0.000479817 0.961059
vt 0.0139723 0.00047981
vt 0.0139723 0.480289
vt 0.0148738 0.00047981
vt 0.0148738 0.480289
vt 0.0283954 0.00047981
vt 0.0283954 0.480289
vt 0.0292468 0.00047981
vt 0.0292468 0.480289
vt 0.0332532 0.00047981
vt 0.0332532 0.480289
vt 0.0340545 0.00047981
vt 0.0340545 0.480289
vt 0.0380609 0.00047981
vt 0.0380609 0.480289
vt 0.0389402 0.0197105
vt 0.0389402 0.480289
vt 0.0389414 0.000457875
vt 0.0389414 0.00503663
vt 0.0389414 0.0187729
vt 0.0436627 0.52923
vt 0.0436627 0.917876
vt 0.0533356 0.000457875
vt 0.0533356 0.00503663
vt 0.0676615 0.0580921
vt 0.0676615 0.446706
vt 0.206798 0.52923
vt 0.206798 0.917876
vt 0.230415 0.0580921
vt 0.230415 0.446706
vt 0.235587 0.481249
vt 0.235587 0.961059
vt 0.249981 0.481249
vt 0.249981 0.961059
vt 0.259137 0.0197105
vt 0.259137 0.480289
vt 0.260094 0.0197105
vt 0.260094 0.480289
vt 0.273971 0.52923
vt 0.273971 0.917876
vt 0.274048 0.000457875
vt 0.274048 0.00503663
vt 0.274048 0.0187729
vt 0.284026 0.0580921
vt 0.284026 0.446706
vt 0.288442 0.000457875
vt 0.288442 0.00503663
vt 0.288442 0.0187729
vt 0.437107 0.52923
vt 0.437107 0.917876
vt 0.446764 0.446706
vt 0.446764 0.0580921
vt 0.475483 0.0197105
vt 0.475483 0.480289
vt 0.476412 0.0197105
vt 0.476412 0.480289
vt 0.480289 0.481249
vt 0.480289 0.961059
vt 0.481227 0.481249
vt 0.481227 0.961059
vt 0.485806 0.481249
vt 0.485806 0.961059
vt 0.489934 0.0197105
vt 0.489934 0.480289
vt 0.490863 0.0340909
vt 0.490863 0.0428322
vt 0.490863 0.0437063
vt 0.490863 0.0524476
vt 0.490863 0.0196314
vt 0.490863 0.0236378
vt 0.490863 0.0244755
vt 0.490863 0.0332168
vt 0.499542 0.481249
vt 0.499542 0.961059
vt 0.500458 0.481249
vt 0.500458 0.961059
vt 0.504357 0.000457875
vt 0.504357 0.00503663
vt 0.505037 0.481249
vt 0.505037 0.961059
vt 0.518751 0.000457875
vt 0.518751 0.00503663
vt 0.518751 0.0187729
vt 0.518773 0.481249
vt 0.518773 0.961059
vt 0.519711 0.000457875
vt 0.519711 0.00503663
vt 0.519711 0.0187729
vt 0.534105 0.000457875
vt 0.534105 0.00503663
vt 0.615959 0.0610264
vt 0.615959 0.424204
vt 0.706252 0.0340909
vt 0.706252 0.0428322
vt 0.706252 0.0437063
vt 0.706252 0.0524476
vt 0.707209 0.0340545
vt 0.707209 0.0380609
vt 0.707209 0.0388622
vt 0.707209 0.0428686
vt 0.71106 0.0196314
vt 0.71106 0.0236378
vt 0.71106 0.0244755
vt 0.71106 0.0332168
vt 0.712017 0.0196314
vt 0.712017 0.0236378
vt 0.712017 0.0244755
vt 0.712017 0.0332168
vt 0.754817 0.000457875
vt 0.754817 0.00503663
vt 0.754817 0.0187729
vt 0.763888 0.0610264
vt 0.763888 0.424204
vt 0.769212 0.000457875
vt 0.769212 0.00503663
vt 0.769212 0.0187729
vt 0.769805 0.0610264
vt 0.769805 0.424204
vt 0.917734 0.0610264
vt 0.917734 0.424204
vt 0.922598 0.0340545
vt 0.922598 0.0380609
vt 0.922598 0.0388622
vt 0.922598 0.0428686
vt 0.932214 0.0196314
vt 0.932214 0.0236378
vt 0.932214 0.0244755
vt 0.932214 0.0332168
vt 0.933143 0.0196314
vt 0.933143 0.0236378
vt 0.933143 0.0244755
vt 0.933143 0.0332168
vt 0.946665 0.0196314
vt 0.946665 0.0236378
vt 0.946665 0.0244755
vt 0.946665 0.0332168
vt 0.947566 0.0196314
vt 0.947566 0.0236378
vt 0.947566 0.0244755
vt 0.947566 0.0332168
vt 0.961088 0.0196314
vt 0.961088 0.0236378
vt 0.961088 0.0244755
vt 0.961088 0.0332168
vt 0.961939 0.0244755
vt 0.961939 0.0332168
vt 0.965946 0.0244755
vt 0.965946 0.0332168
vt 0.966747 0.0244755
vt 0.966747 0.0332168
vt 0.970753 0.0244755
vt 0.970753 0.0332168
vt 0.971554 0.0244755
vt 0.971554 0.0332168
vt 0.975561 0.0244755
vt 0.975561 0.0332168
vt 0.976362 0.0244755
vt 0.976362 0.0332168
vt 0.980369 0.0244755
vt 0.980369 0.0332168
vt 0.98117 0.0244755
vt 0.98117 0.0332168
vt 0.985126 0.000457875
vt 0.985126 0.00503663
vt 0.985176 0.0244755
vt 0.985176 0.0332168
vt 0.985978 0.0244755
vt 0.985978 0.0332168
vt 0.989984 0.0244755
vt 0.989984 0.0332168
vt 0.990785 0.0244755
vt 0.990785 0.0332168
vt 0.994792 0.0244755
vt 0.994792 0.0332168
vt 0.995593 0.0244755
vt 0.995593 0.0332168
vt 0.99952 0.000457875
vt 0.99952 0.00503663
vt 0.99952 0.0187729
vt 0.999599 0.0244755
vt 0.999599 0.0332168
vn -1 0 -0
vn -1 0 -0
vn -1 0 -0
vn -1 0 -0
vn 1 0 -0
vn 1 0 -0
vn 1 0 -0
vn 1 0 -0
vn 0 -1 -0
vn 0 -1 -0
vn 0 -1 -0
vn 0 -1 -0
vn -0 1 -0
vn -0 1 -0
vn -0 1 -0
vn -0 1 -0
vn 0 -1 -0
vn 0 -1 -0
vn 0 -1 -0
vn 0 -1 -0
vn -0 -1 0
vn -0 -1 0
vn -0 -1 0
vn -0 -1 0
vn 0 0 -1
vn 0 0 -1
vn 0 0 -1
vn 0 0 -1
vn 0 1 -0
vn 0 1 -0
vn 0 1 -0
vn 0 1 -0
vn 0 1 0
vn 0 1 0
vn 0 1 0
vn 0 1 0
vn 0 -1 -0
vn 0 -1 -0
vn 0 -1 -0
vn 0 -1 -0
vn 0 1 -0
vn 0 1 -0
vn 0 1 -0
vn 0 1 -0
vn 0 0 1
vn 0 0 1
vn 0 0 1
vn 0 0 1
vn 0 0 1
vn 0 0 1
vn 0 0 1
vn 0 0 1
vn -1 0 -0
vn -1 0 -0
vn -1 0 -0
vn -1 0 -0
vn 0 1 0
vn 0 1 0
vn 0 1 0
vn 0 1 0
vn 1 0 -0
vn 1 0 -0
vn 1 0 -0
vn 1 0 -0
vn 0 -1 -0
vn 0 -1 -0
vn 0 -1 -0
vn 0 -1 -0
vn 1 0 -0
vn 1 0 -0
vn 1 0 -0
vn 1 0 -0
vn 0 -1 -0
vn 0 -1 -0
vn 0 -1 -0
vn 0 -1 -0
vn -1 0 -0
vn -1 0 -0
vn -1 0 -0
vn -1 0 -0
vn 0 1 -0
vn 0 1 -0
vn 0 1 -0
vn 0 1 -0
vn -0 -0 1
vn -0 -0 1
vn -0 -0 1
vn -0 -0 1
vn 0 0 1
vn 0 0 1
vn 0 0 1
vn 0 0 1
vn 0 1 -0
vn 0 1 -0
vn 0 1 -0
vn 0 1 -0
vn 1 0 -0
vn 1 0 -0
vn 1 0 -0
vn 1 0 -0
vn 0 -1 -0
vn 0 -1 -0
vn 0 -1 -0
vn 0 -1 -0
vn -1 0 -0
vn -1 0 -0
vn -1 0 -0
vn -1 0 -0
vn -1 0 -0
vn -1 0 -0
vn -1 0 -0
vn -1 0 -0
vn 0 1 0
vn 0 1 0
vn 0 1 0
vn 0 1 0
vn 1 0 -0
vn 1 0 -0
vn 1 0 -0
vn 1 0 -0
vn 0 -1 -0
vn 0 -1 -0
vn 0 -1 -0
vn 0 -1 -0
vn 0 0 1
vn 0 0 1
vn 0 0 1
vn 0 0 1
vn 0 0 1
vn 0 0 1
vn 0 0 1
vn 0 0 1
vn 0 -1 -0
vn 0 -1 -0
vn 0 -1 -0
vn 0 -1 -0
vn -1 0 -0
vn -1 0 -0
vn -1 0 -0
vn -1 0 -0
vn 0 1 -0
vn 0 1 -0
vn 0 1 -0
vn 0 1 -0
vn 1 0 -0
vn 1 0 -0
vn 1 0 -0
vn 1 0 -0
vn 0 -1 -0
vn 0 -1 -0
vn 0 -1 -0
vn 0 -1 -0
vn -1 0 -0
vn -1 0 -0
vn -1 0 -0
vn -1 0 -0
vn 0 1 0
vn 0 1 0
vn 0 1 0
vn 0 1 0
vn 1 0 -0
vn 1 0 -0
vn 1 0 -0
vn 1 0 -0
vn 0 0 1
vn 0 0 1
vn 0 0 1
vn 0 0 1
vn 0 0 1
vn 0 0 1
vn 0 0 1
vn 0 0 1
vn -0 -0 1
vn -0 -0 1
vn -0 -0 1
vn -0 -0 1
vn 0 1 -0
vn 0 1 -0
vn 0 1 -0
vn 0 1 -0
vn 0 -1 -0
vn 0 -1 -0
vn 0 -1 -0
vn 0 -1 -0
vn 0 -1 -0
vn 0 -1 -0
vn 0 -1 -0
vn 0 -1 -0
vn -1 0 -0
vn -1 0 -0
vn -1 0 -0
vn -1 0 -0
vn 0 1 -0
vn 0 1 -0
vn 0 1 -0
vn 0 1 -0
vn 1 0 -0
vn 1 0 -0
vn 1 0 -0
vn 1 0 -0
vn 1 0 -0
vn 1 0 -0
vn 1 0 -0
vn 1 0 -0
vn -0 -1 0
vn -0 -1 0
vn -0 -1 0
vn -0 -1 0
vn -1 0 -0
vn -1 0 -0
vn -1 0 -0
vn -1 0 -0
vn 0 -1 -0
vn 0 -1 -0
vn 0 -1 -0
vn 0 -1 -0
vn -1 0 -0
vn -1 0 -0
vn -1 0 -0
vn -1 0 -0
vn -0 -1 0
vn -0 -1 0
vn -0 -1 0
vn -0 -1 0
vn 1 0 -0
vn 1 0 -0
vn 1 0 -0
vn 1 0 -0
vn -0 1 -0
vn -0 1 -0
vn -0 1 -0
vn -0 1 -0
vn 0 0 -1
vn 0 0 -1
vn 0 0 -1
vn 0 0 -1
vn 0 0 1
vn 0 0 1
vn 0 0 1
vn 0 0 1
vn 0 0 -1
vn 0 0 -1
vn 0 0 -1
vn 0 0 -1
vn 0 0 1
vn 0 0 1
vn 0 0 1
vn 0 0 1
vn 0 -0 -1
vn 0 -0 -1
vn 0 -0 -1
vn 0 -0 -1
vn 0 -0 -1
vn 0 -0 -1
vn 0 -0 -1
vn 0 -0 -1
vn 0 -0 -1
vn 0 0 -1
vn 0 0 -1
vn 0 0 -1
vn 0 0 -1
vn 0 0 -1
vn 0 0 -1
vn 0 0 -1
vn 0 0 -1
vn 0 0 -1
vn 0 -0 -1
vn 0 -0 -1
vn 0 -0 -1
vn 0 0 -1
vn 0 0 -1
vn 0 0 -1
vn 0 -0 -1
vn 0 -0 -1
vn 0 -0 -1
vn 0 -0 -1
vn 0 -0 -1
vn 0 -0 -1
vn 0 0 -1
vn 0 0 -1
vn 0 0 -1
vn 0 -0 -1
vn 0 -0 -1
vn 0 -0 -1
vn 0 0 -1
vn 0 0 -1
vn 0 0 -1
vn 0 0 -1
vn 0 0 -1
vn 0 0 -1
vn 0 -0 -1
vn 0 -0 -1
vn 0 -0 -1
vn 0 0 -1
vn 0 0 -1
vn 0 0 -1
vn 0 0 1
vn 0 0 1
vn 0 0 1
vn 0 0 1
vn 0 0 1
vn 0 0 1
vn 0 0 1
vn 0 0 1
vn 0 0 1
vn 0 0 1
vn 0 0 1
vn 0 0 1
vn 0 0 1
vn 0 0 1
vn 0 0 1
vn 0 0 1
vn 0 0 1
vn 0 0 1
vn 0 0 1
vn 0 0 1
vn 0 0 1
vn 0 0 1
vn 0 0 1
vn 0 0 1
vn 0 0 1
vn 0 0 1
vn 0 0 1
vn 0 0 1
vn 0 0 1
vn 0 0 1
vn 0 0 1
vn 0 0 1
vn 0 0 1
vn 0 0 1
vn 0 0 1
vn 0 0 1
vn 0 0 1
vn 0 0 1
vn 0 0 1
vn 0 0 1
vn 0 0 1
vn 0 0 1
vn 0 0 1
vn 0 0 1
vn 0 0 1
vn 0 0 1
vn 0 0 1
vn 0 0 1
g Default
usemtl Default
s off
f 2/83/1 4/88/2 3/87/3 1/82/4
f 8/76/5 7/77/6 5/65/7 6/64/8
f 3/23/9 10/46/10 9/45/11 1/22/12
f 2/90/13 11/113/14 12/114/15 4/91/16
f 10/46/17 13/51/18 14/50/19 9/45/20
f 6/85/21 14/50/22 13/51/23 8/86/24
f 12/35/25 16/37/26 13/36/27 10/34/28
f 15/118/29 16/119/30 12/114/31 11/113/32
f 7/182/33 16/119/34 15/118/35 5/181/36
f 9/45/37 14/50/38 20/49/39 17/44/40
f 19/117/41 15/118/42 11/113/43 18/112/44
f 28/1/45 27/5/46 26/6/47 25/2/48
f 32/10/49 31/8/50 30/7/51 29/9/52
f 25/79/53 2/83/54 1/82/55 28/78/56
f 21/93/57 2/90/58 25/89/59 26/92/60
f 22/13/61 21/14/62 26/12/63 27/11/64
f 28/21/65 1/22/66 22/27/67 27/26/68
f 6/64/69 5/65/70 32/63/71 29/62/72
f 23/81/73 6/85/74 29/84/75 30/80/76
f 31/16/77 24/18/78 23/17/79 30/15/80
f 32/180/81 5/181/82 24/167/83 31/166/84
f 40/69/85 39/68/86 38/96/87 37/97/88
f 44/74/89 43/106/90 42/107/91 41/75/92
f 37/166/93 24/167/94 15/118/95 40/117/96
f 34/183/97 24/184/98 37/179/99 38/178/100
f 33/103/101 34/127/102 38/126/103 39/102/104
f 40/157/105 15/159/106 33/158/107 39/156/108
f 41/153/109 21/155/110 36/154/111 44/152/112
f 11/113/113 21/93/114 41/92/115 42/112/116
f 35/168/117 11/169/118 42/165/119 43/164/120
f 44/72/121 36/73/122 35/105/123 43/104/124
f 53/98/125 52/99/126 51/71/127 50/70/128
f 57/130/129 56/131/130 55/111/131 54/110/132
f 14/50/133 23/81/134 53/80/135 50/49/136
f 51/175/137 46/177/138 14/176/139 50/174/140
f 52/124/141 45/125/142 46/101/143 51/100/144
f 23/150/145 45/151/146 52/149/147 53/148/148
f 54/26/149 22/27/150 9/45/151 57/44/152
f 55/161/153 47/163/154 22/162/155 54/160/156
f 48/129/157 47/109/158 55/108/159 56/128/160
f 9/172/161 48/173/162 56/171/163 57/170/164
f 20/138/165 59/139/166 58/135/167 17/134/168
f 69/66/169 68/67/170 67/59/171 66/58/172
f 18/143/173 61/142/174 60/146/175 19/147/176
f 59/136/177 65/137/178 62/133/179 58/132/180
f 63/141/181 64/145/182 60/144/183 61/140/184
f 62/58/185 65/66/186 69/66/187 66/58/188
f 67/59/189 63/59/190 62/58/191 66/58/192
f 68/67/193 64/67/194 63/59/195 67/59/196
f 65/66/197 64/67/198 68/67/199 69/66/200
f 88//201 89//202 86//203 87//204
f 91//205 88//206 87//207 90//208
f 93//209 91//210 90//211 92//212
f 92//213 93//214 89//215 86//216
f 96//217 97//218 94//219 95//220
f 97//221 99//222 98//223 94//224
f 99//225 101//226 100//227 98//228
f 101//229 96//230 95//231 100//232
g WindowPane
usemtl WindowPane
s 1
f 104/121/233 108/123/234 107/122/235 103/120/236
f 106/115/237 109/116/238 105/95/239 102/94/240
f 111/120/241 115/122/242 116/123/243 112/121/244
f 110/94/245 113/95/246 117/116/247 114/115/248
g Default
usemtl Default
s off
f 70/25/249 12/35/250 72/31/251
f 4/4/252 12/35/253 70/25/254
f 4/4/255 70/25/256 71/24/257
f 4/4/258 71/24/259 3/3/260
f 3/3/261 71/24/262 10/34/263
f 71/24/264 73/30/265 10/34/266
f 73/30/267 12/35/268 10/34/269
f 72/31/270 12/35/271 73/30/272
f 16/37/273 74/53/274 76/43/275
f 16/37/276 7/61/277 74/53/278
f 74/53/279 7/61/280 75/52/281
f 75/52/282 7/61/283 8/60/284
f 75/52/285 8/60/286 13/36/287
f 77/42/288 75/52/289 13/36/290
f 16/37/291 76/43/292 77/42/293
f 16/37/294 77/42/295 13/36/296
f 78/54/297 33/41/298 80/48/299
f 34/57/300 33/41/301 78/54/302
f 34/57/303 78/54/304 79/55/305
f 34/57/306 79/55/307 45/56/308
f 45/56/309 79/55/310 46/40/311
f 80/48/312 33/41/313 81/47/314
f 81/47/315 33/41/316 46/40/317
f 79/55/318 81/47/319 46/40/320
f 35/39/321 36/20/322 82/29/323
f 35/39/324 82/29/325 84/33/326
f 82/29/327 36/20/328 83/28/329
f 83/28/330 36/20/331 47/19/332
f 83/28/333 47/19/334 48/38/335
f 85/32/336 83/28/337 48/38/338
f 35/39/339 84/33/340 85/32/341
f 35/39/342 85/32/343 48/38/344
