####
#
#	OBJ File Generated by LightWave3D
#	LightWave3D OBJ Export v2.3
#
####
o Test_cube_v001.obj
mtllib Test_cube_v001.mtl
g default
v -9 -10 9
v 9 -10 9
v 9 -10 -9
v -9 -10 -9
v -9 -9 10
v 9 -9 10
v 10 -9 9
v 10 -9 -9
v 9 -9 -10
v -9 -9 -10
v -10 -9 -9
v -10 -9 9
v -9 9 10
v 9 9 10
v 10 9 9
v 10 9 -9
v 9 9 -10
v -9 9 -10
v -10 9 -9
v -10 9 9
v -9 10 9
v 9 10 9
v 9 10 -9
v -9 10 -9
vt 0.233384 0.092462
vt 0.241263 0.294456
vt 0.244788 0.0785559
vt 0.249509 0.0943412
vt 0.257134 0.293837
vt 0.437945 0.0669519
vt 0.438583 0.0510151
vt 0.453519 0.0611761
vt 0.455076 0.476586
vt 0.462164 0.962533
vt 0.462397 0.945377
vt 0.465366 0.72701
vt 0.465599 0.709854
vt 0.468568 0.491488
vt 0.472806 0.474505
vt 0.476056 0.266344
vt 0.491733 0.258258
vt 0.492001 0.273196
vt 0.671773 0.255014
vt 0.671974 0.269994
vt 0.68053 0.965502
vt 0.680763 0.948346
vt 0.683128 0.476063
vt 0.683732 0.729979
vt 0.683965 0.712823
vt 0.686934 0.494457
vt 0.688555 0.262624
vt 0.690611 0.0453786
vt 0.701607 0.479064
vt 0.705196 0.0331654
vt 0.707538 0.0497954
vt 0.907798 0.0587137
vt 0.911086 0.0416838
vt 0.920737 0.268464
vt 0.924491 0.055053
vt 0.937425 0.267448
vn 0 -1 -0
vn 0 -1 -0
vn 0 -1 -0
vn 0 -1 -0
vn 0 -0.707107 0.707107
vn 0 -0.707107 0.707107
vn 0 -0.707107 0.707107
vn 0 -0.707107 0.707107
vn 0.57735 -0.57735 0.57735
vn 0.57735 -0.57735 0.57735
vn 0.57735 -0.57735 0.57735
vn 0.707107 -0.707107 -0
vn 0.707107 -0.707107 -0
vn 0.707107 -0.707107 -0
vn 0.707107 -0.707107 -0
vn 0.57735 -0.57735 -0.57735
vn 0.57735 -0.57735 -0.57735
vn 0.57735 -0.57735 -0.57735
vn 0 -0.707107 -0.707107
vn 0 -0.707107 -0.707107
vn 0 -0.707107 -0.707107
vn 0 -0.707107 -0.707107
vn -0.57735 -0.57735 -0.57735
vn -0.57735 -0.57735 -0.57735
vn -0.57735 -0.57735 -0.57735
vn -0.707107 -0.707107 -0
vn -0.707107 -0.707107 -0
vn -0.707107 -0.707107 -0
vn -0.707107 -0.707107 -0
vn -0.57735 -0.57735 0.57735
vn -0.57735 -0.57735 0.57735
vn -0.57735 -0.57735 0.57735
vn 0 0 1
vn 0 0 1
vn 0 0 1
vn 0 0 1
vn 0.707107 0 0.707107
vn 0.707107 0 0.707107
vn 0.707107 0 0.707107
vn 0.707107 0 0.707107
vn 1 0 -0
vn 1 0 -0
vn 1 0 -0
vn 1 0 -0
vn 0.707107 -0 -0.707107
vn 0.707107 -0 -0.707107
vn 0.707107 -0 -0.707107
vn 0.707107 -0 -0.707107
vn 0 0 -1
vn 0 0 -1
vn 0 0 -1
vn 0 0 -1
vn -0.707107 0 -0.707107
vn -0.707107 0 -0.707107
vn -0.707107 0 -0.707107
vn -0.707107 0 -0.707107
vn -1 0 -0
vn -1 0 -0
vn -1 0 -0
vn -1 0 -0
vn -0.707107 0 0.707107
vn -0.707107 0 0.707107
vn -0.707107 0 0.707107
vn -0.707107 0 0.707107
vn 0 0.707107 0.707107
vn 0 0.707107 0.707107
vn 0 0.707107 0.707107
vn 0 0.707107 0.707107
vn 0.57735 0.57735 0.57735
vn 0.57735 0.57735 0.57735
vn 0.57735 0.57735 0.57735
vn 0.707107 0.707107 0
vn 0.707107 0.707107 0
vn 0.707107 0.707107 0
vn 0.707107 0.707107 0
vn 0.57735 0.57735 -0.57735
vn 0.57735 0.57735 -0.57735
vn 0.57735 0.57735 -0.57735
vn -0 0.707107 -0.707107
vn -0 0.707107 -0.707107
vn -0 0.707107 -0.707107
vn -0 0.707107 -0.707107
vn -0.57735 0.57735 -0.57735
vn -0.57735 0.57735 -0.57735
vn -0.57735 0.57735 -0.57735
vn -0.707107 0.707107 -0
vn -0.707107 0.707107 -0
vn -0.707107 0.707107 -0
vn -0.707107 0.707107 -0
vn -0.57735 0.57735 0.57735
vn -0.57735 0.57735 0.57735
vn -0.57735 0.57735 0.57735
vn 0 1 -0
vn 0 1 -0
vn 0 1 -0
vn 0 1 -0
g Default
usemtl Default
s off
f 4/8/1 3/28/2 2/19/3 1/17/4
f 2/19/5 6/20/6 5/18/7 1/17/8
f 7/27/9 6/20/10 2/19/11
f 3/28/12 8/31/13 7/27/14 2/19/15
f 9/30/16 8/31/17 3/28/18
f 10/11/19 9/22/20 3/21/21 4/10/22
f 11/6/23 10/7/24 4/8/25
f 12/16/26 11/6/27 4/8/28 1/17/29
f 5/18/30 12/16/31 1/17/32
f 6/20/33 14/23/34 13/15/35 5/18/36
f 7/27/37 15/29/38 14/23/39 6/20/40
f 8/31/41 16/32/42 15/34/43 7/27/44
f 9/30/45 17/33/46 16/32/47 8/31/48
f 18/12/49 17/24/50 9/22/51 10/11/52
f 19/4/53 18/3/54 10/7/55 11/6/56
f 20/5/57 19/4/58 11/6/59 12/16/60
f 13/15/61 20/9/62 12/16/63 5/18/64
f 14/23/65 22/26/66 21/14/67 13/15/68
f 15/29/69 22/26/70 14/23/71
f 16/32/72 23/35/73 22/36/74 15/34/75
f 17/33/76 23/35/77 16/32/78
f 24/13/79 23/25/80 17/24/81 18/12/82
f 24/1/83 18/3/84 19/4/85
f 21/2/86 24/1/87 19/4/88 20/5/89
f 21/14/90 20/9/91 13/15/92
f 22/26/93 23/25/94 24/13/95 21/14/96
